<svg id="fi-logo" data-name="FI Logo" xmlns="http://www.w3.org/2000/svg" viewBox="0 0 431.36 155.61"><defs><style>.cls-1{fill:#191919;}.cls-2{fill:#fff;}.cls-3{fill:#d3d666;}.cls-4{fill:#45baae;}.cls-5{fill:#32a05f;}.cls-6{fill:none;}</style></defs><title>FI_Logotyp_RGB</title><path class="cls-1" d="M155.28,148.67l4.88-27.7a1.39,1.39,0,0,1,1.53-1.31h9.81a1.19,1.19,0,0,1,1.31,1.53l-.13.82a1.42,1.42,0,0,1-1.57,1.27h-7.28l-1.7,9.81h5.67a1.21,1.21,0,0,1,1.31,1.57l-.14.79a1.45,1.45,0,0,1-1.57,1.31h-5.93l-2.14,12.13a1.4,1.4,0,0,1-1.57,1.3h-1.18c-1,0-1.48-.52-1.3-1.52"/><path class="cls-1" d="M185.51,119.31h.35c4.19,0,7.07,2,6.28,6.46l-3.23,18.32c-.78,4.49-3.49,6.45-8.55,6.45H180c-4.18,0-7.11-2-6.28-6.45L177,125.77c.79-4.54,3.49-6.46,8.55-6.46m-4.67,27.61c2.27,0,3.62-.91,4.1-3.62l3-16.75c.44-2.7-.57-3.62-2.88-3.62s-3.66.92-4.1,3.62l-3,16.75c-.48,2.71.57,3.62,2.88,3.62m4.28-32.45-.31,1.48a1.4,1.4,0,0,1-1.57,1.31h-.91c-1,0-1.49-.52-1.31-1.53l.26-1.53a1.44,1.44,0,0,1,1.57-1.3h1a1.2,1.2,0,0,1,1.31,1.57m6.72,0-.27,1.48a1.42,1.42,0,0,1-1.57,1.31h-1c-1,0-1.48-.52-1.3-1.53l.3-1.53a1.4,1.4,0,0,1,1.57-1.3h.92a1.19,1.19,0,0,1,1.31,1.57"/><path class="cls-1" d="M214,126.11l-.87,5.11c-.57,3.14-2,5-4.63,5.89l2.05,11.51a1.2,1.2,0,0,1-1.31,1.57H208a1.35,1.35,0,0,1-1.48-1.3l-1.88-11.22H201l-2,11.22a1.4,1.4,0,0,1-1.57,1.3h-1.18c-1,0-1.49-.52-1.31-1.52l4.89-27.7a1.38,1.38,0,0,1,1.52-1.31h6.33c4.19,0,7.11,2,6.28,6.45m-7.11-2.83h-3.36l-1.88,10.82H205c2.32,0,3.67-.92,4.15-3.62l.61-3.58c.48-2.71-.57-3.62-2.88-3.62"/><path class="cls-1" d="M228.27,150.19H218.15c-1,0-1.49-.52-1.31-1.52l4.88-27.7a1.39,1.39,0,0,1,1.53-1.31h10a1.18,1.18,0,0,1,1.31,1.52l-.13.83a1.43,1.43,0,0,1-1.57,1.27h-7.46l-1.66,9.6h5.85a1.2,1.2,0,0,1,1.31,1.57l-.14.78a1.45,1.45,0,0,1-1.57,1.31h-6.1l-1.75,10h7.33c1,0,1.48.53,1.27,1.53l-.14.79a1.38,1.38,0,0,1-1.52,1.3"/><path class="cls-1" d="M237.82,150.19H237c-1,0-1.48-.52-1.31-1.52l4.89-27.7a1.39,1.39,0,0,1,1.53-1.31h1.39A1.42,1.42,0,0,1,245,121l3.84,19.71L252.31,121a1.42,1.42,0,0,1,1.57-1.31h.87c1,0,1.48.52,1.31,1.52l-4.89,27.71a1.38,1.38,0,0,1-1.52,1.3h-1.18a1.4,1.4,0,0,1-1.57-1.3L243,128.47l-3.58,20.42a1.42,1.42,0,0,1-1.57,1.3"/><path class="cls-1" d="M273.47,148.76A1.27,1.27,0,0,1,272,150.2h-1.18a1.27,1.27,0,0,1-1.44-1.44l0-5.76h-6.55l-2.13,6A1.62,1.62,0,0,1,259,150.2h-1.09c-1.05,0-1.49-.7-1.14-1.66l10.39-27.75a1.64,1.64,0,0,1,1.65-1.13h2.4a1.34,1.34,0,0,1,1.49,1.44Zm-4.1-9.21-.09-14.74L264,139.55Z"/><path class="cls-1" d="M297.9,126.11l-3.1,17.63c-.78,4.49-3.49,6.45-8.55,6.45h-6c-1,0-1.49-.52-1.31-1.52l4.88-27.7a1.39,1.39,0,0,1,1.53-1.31h6.24c4.19,0,7.11,2,6.28,6.45m-7.11-2.83h-3.27l-4.06,23.29h3.27c2.27,0,3.62-.91,4.1-3.62l2.84-16c.48-2.71-.57-3.62-2.88-3.62"/><path class="cls-1" d="M312.25,150.19H302.13c-1,0-1.48-.52-1.3-1.52l4.88-27.7a1.39,1.39,0,0,1,1.53-1.31h10a1.18,1.18,0,0,1,1.31,1.52l-.14.83a1.41,1.41,0,0,1-1.56,1.27h-7.47l-1.65,9.6h5.84a1.2,1.2,0,0,1,1.31,1.57l-.13.78a1.46,1.46,0,0,1-1.57,1.31h-6.11l-1.74,10h7.33c1,0,1.48.53,1.26,1.53l-.13.79a1.39,1.39,0,0,1-1.53,1.3"/><path class="cls-1" d="M331.45,150.19h-1.18c-1,0-1.48-.52-1.3-1.52l4.88-27.7a1.39,1.39,0,0,1,1.53-1.31h1.18c1,0,1.48.52,1.3,1.52L333,148.89a1.4,1.4,0,0,1-1.57,1.3"/><path class="cls-1" d="M342.49,150.19h-.87c-1,0-1.48-.52-1.31-1.52l4.88-27.7a1.39,1.39,0,0,1,1.53-1.31h1.4a1.43,1.43,0,0,1,1.57,1.31l3.84,19.71L357,121a1.43,1.43,0,0,1,1.57-1.31h.88c1,0,1.48.52,1.3,1.52l-4.88,27.71a1.39,1.39,0,0,1-1.53,1.3h-1.17a1.41,1.41,0,0,1-1.58-1.3l-3.92-20.42-3.58,20.42a1.42,1.42,0,0,1-1.57,1.3"/><path class="cls-1" d="M382.45,121.45l-7,9.68,3.1,17.49a1.2,1.2,0,0,1-1.31,1.57H376a1.34,1.34,0,0,1-1.48-1.3l-2.23-13.4-3.88,5.37-1.44,8a1.4,1.4,0,0,1-1.57,1.3h-1.18c-1,0-1.48-.52-1.31-1.52l4.89-27.7a1.39,1.39,0,0,1,1.53-1.31h1.17c1,0,1.49.52,1.31,1.52l-2.27,13.18,9-13.74a1.81,1.81,0,0,1,1.75-1h1.18c1.18,0,1.57.83.91,1.79"/><path class="cls-1" d="M395.8,119.31h.35c4.19,0,7.07,2,6.28,6.46l-3.22,18.32c-.79,4.49-3.49,6.45-8.55,6.45h-.35c-4.19,0-7.11-2-6.28-6.45l3.22-18.32c.79-4.54,3.49-6.46,8.55-6.46m-4.66,27.61c2.26,0,3.62-.91,4.1-3.62l3-16.75c.44-2.7-.56-3.62-2.88-3.62s-3.66.92-4.1,3.62l-3,16.75c-.48,2.71.56,3.62,2.88,3.62m4.27-32.45-.3,1.48a1.4,1.4,0,0,1-1.57,1.31h-.92a1.18,1.18,0,0,1-1.31-1.53l.26-1.53a1.45,1.45,0,0,1,1.57-1.3h1a1.2,1.2,0,0,1,1.31,1.57m6.72,0-.26,1.48a1.43,1.43,0,0,1-1.57,1.31h-1c-1,0-1.49-.52-1.31-1.53l.3-1.53a1.4,1.4,0,0,1,1.57-1.3h.92a1.19,1.19,0,0,1,1.31,1.57"/><path class="cls-1" d="M424.29,126.11l-.91,5.46c-.83,4.49-3.54,6.45-8.6,6.45h-3.53l-1.92,10.87a1.4,1.4,0,0,1-1.57,1.3h-1.18c-1,0-1.48-.52-1.31-1.52l4.89-27.7a1.39,1.39,0,0,1,1.53-1.31H418c4.19,0,7.11,2,6.28,6.45m-4.23.79c.48-2.71-.57-3.62-2.88-3.62h-3.36l-1.92,11.08h3.36c2.27,0,3.67-.92,4.15-3.58Z"/><path class="cls-2" d="M166.45,68.35h0"/><path class="cls-3" d="M193.8,21.91c-.28-.35-.57-.7-.86-1a34.37,34.37,0,0,0-3.6-3.54c-.23-.21-1-.82-1.29-1-.7-.52-1.42-1-2.16-1.48s-1.47-.9-2.23-1.3c-.31-.16-.51-.3-1-.53l-.32-.13a19.73,19.73,0,0,0-2.24-.77c-1.19-.3-3.59-.38-4.14,0,0,0,0,0-.05.05-3.17,2.92-5.06,6.64-8.36,11.13-2.91,4-6.74,9.19-9.78,13.07L142.83,57.88c-1.45,2-5.85,6.5-7.29,8.55l30.3-1.32,18.26-22.9A112.84,112.84,0,0,0,195,26.58a1.46,1.46,0,0,0,.15-1,11.7,11.7,0,0,0-1.33-3.63"/><path class="cls-4" d="M63.37,67.47s-.55-2.85-.56-2.85-3.87-21.46-.46-32.06c1.44-4.5,3.82-4.87,8-5,3.26-.08,31.33,11.76,50.88,19.08l4.44,1.74c.09.05.15.12.23.16,3.87,2,7.78,3.88,11.67,5.8.22.13,1.66.63,1.89.74L153.2,36.76c-4-1.31-10.37-4.76-14.3-6.18L137.4,30c-8.38-3.33-15-7-23.41-10.13C101.62,15.27,86.45,8.4,72.87,6.16c-.18,0-.36-.06-.55-.1L72,6a26.94,26.94,0,0,0-12.22.29C32.27,11.74,35.33,45.8,39.33,67.83Z"/><path class="cls-3" d="M43.29,96.2c3.2,30.15,15.3,46.85,25.35,50.76A27.94,27.94,0,0,0,79,149c14.81-.15,21-4.57,23.51-6.11,7.41-4.59,13.27-11.49,19.3-17.67,9.76-10,18.36-20.82,27.81-31.1l-34,.3-12.13,12.76c-4.51,4.12-11.74,10-16.16,12.14-5.13,2.49-16.16,2.74-17.2-9.42,0,0-1.36-9-2.14-14.17Z"/><path class="cls-5" d="M222.33,67.47a10.79,10.79,0,0,0-1.52-2.22s0,0,0,0l0-.07-.07-.06L220,64.5a10.78,10.78,0,0,0-4.55-3.09c-16.14-6.58-16.68-6.86-31.24-13.51l-13,16.71c1.68.63,5.31,2.72,7,3.33-3.27.07-9.81.33-9.81.33l-1.86.08h0l-20.75,1q-16.27,0-32.57.33-14.8.3-29.62.88c-3.59.13-7.18.3-10.77.46q-24.52.33-49,1.07h-2l-5.88,0c-1.93-.12-7.19-.25-8.2.07l-.38.12-.08,0-.23.1c-.44.19-.9.37-1.33.6a5.63,5.63,0,0,0-.62.37,1.88,1.88,0,0,0-.18.12h0l-.25.2-.27.26c-.1.2-.18.38-.23.47a3.45,3.45,0,0,0-.14.34c-.13.35-.25.71-.36,1.07-.23.75-.38,1.5-.55,2.25a1,1,0,0,0,0,.11.19.19,0,0,0,0,.08c-.05.44-.11.89-.15,1.34a30.05,30.05,0,0,0,0,4.55c0,.2,0,.32,0,.4s.1.4.12.51c.18,1,.47,1.86.73,2.79l0,.17a1.37,1.37,0,0,1,.08.14c.19.36.35.72.54,1.07l.28.44c-.06-.12.35.48.53.68a8.56,8.56,0,0,1,.75.72l.21.16A19,19,0,0,0,8,92.34a9.11,9.11,0,0,0,1.77.87c1.54.45,92.07-2.52,92.54-2.68l4.2-.07q45.65.89,91.23-2.15c.55,0,8.62-.81,9.27-.9,1.54-.19,8.23-1.69,9.93-2.55a10.57,10.57,0,0,0,5.79-7.94,8.26,8.26,0,0,0,.3-1.72,10.78,10.78,0,0,0,.42-2.33,13.66,13.66,0,0,0-.08-1.38,12.9,12.9,0,0,0-.1-1.39,9.34,9.34,0,0,0-.91-2.63"/><rect class="cls-6" x="-157" y="-260.28" width="841.89" height="595.28"/></svg>