<?xml version="1.0" encoding="utf-8"?>
<!-- Generator: Adobe Illustrator 23.0.3, SVG Export Plug-In . SVG Version: 6.00 Build 0)  -->
<svg version="1.1" id="Lager_1" xmlns="http://www.w3.org/2000/svg" xmlns:xlink="http://www.w3.org/1999/xlink" width="48px" height="48px" x="0px" y="0px"
	 viewBox="0 0 221.3 148" style="enable-background:new 0 0 221.3 148;" xml:space="preserve">
<style type="text/css">
	.st0{fill:#191919;}
	.st1{fill:#FFFFFF;}
	.st2{fill:#D3D666;}
	.st3{fill:#45BAAE;}
	.st4{fill:#32A05F;}
	.st5{fill:none;}
</style>
<rect x="-283.33" y="-484.28" class="st5" width="841.89" height="595.28"/>
<path class="st2" d="M183.88,23.4c-0.26-0.32-0.53-0.64-0.8-0.95c-1.02-1.17-2.14-2.26-3.32-3.27c-0.22-0.19-0.93-0.75-1.19-0.95
	c-0.65-0.48-1.32-0.94-2-1.37c-0.67-0.43-1.36-0.83-2.06-1.2c-0.28-0.15-0.47-0.28-0.95-0.49c-0.1-0.04-0.2-0.08-0.3-0.12
	c-0.68-0.27-1.36-0.53-2.07-0.71c-1.1-0.28-3.32-0.35-3.83,0c-0.02,0.01-0.03,0.02-0.05,0.04c-2.92,2.7-4.68,6.14-7.72,10.29
	c-2.69,3.67-6.23,8.49-9.04,12.07l-13.78,19.9c-1.34,1.9-5.4,6-6.74,7.9l28-1.22l16.88-21.17c0,0,6.07-7.2,10.05-14.44
	c0.16-0.3,0.21-0.64,0.13-0.97C184.91,25.89,184.48,24.18,183.88,23.4"/>
<path class="st3" d="M63.34,65.5c-0.01,0-0.5-2.63-0.51-2.63c0,0-3.58-19.83-0.43-29.63c1.34-4.16,3.53-4.5,7.42-4.6
	c3.01-0.08,28.95,10.86,47.02,17.63c1.37,0.54,2.74,1.07,4.11,1.61c0.08,0.04,0.13,0.11,0.21,0.15c3.58,1.82,7.19,3.58,10.78,5.36
	c0.2,0.13,1.54,0.59,1.74,0.69l12.67-16.96c-3.67-1.21-9.59-4.4-13.22-5.71c-0.47-0.17-0.94-0.34-1.38-0.51
	c-7.74-3.07-13.84-6.44-21.64-9.36c-11.43-4.28-25.45-10.62-38-12.7c-0.17-0.04-0.34-0.05-0.5-0.09c-0.09-0.01-0.18-0.03-0.27-0.05
	c-3.79-0.79-7.63-0.68-11.29,0.27c-25.45,5.03-22.62,36.5-18.92,56.86L63.34,65.5z"/>
<path class="st2" d="M44.79,92.06c2.95,27.86,14.14,43.3,23.42,46.91c3.34,1.3,6.55,1.86,9.61,1.85
	c13.69-0.14,19.43-4.22,21.72-5.64c6.85-4.25,12.26-10.62,17.84-16.33c9.01-9.23,16.97-19.24,25.69-28.74l-31.4,0.28l-11.21,11.79
	c-4.17,3.81-10.85,9.23-14.93,11.21c-4.74,2.3-14.93,2.54-15.89-8.7c0,0-1.26-8.31-1.98-13.1L44.79,92.06z"/>
<path class="st4" d="M210.25,65.51c-0.37-0.75-0.87-1.42-1.41-2.06c0,0-0.02-0.02-0.02-0.02c-0.02-0.02-0.04-0.06-0.05-0.06
	c-0.02-0.02-0.04-0.04-0.06-0.06c-0.21-0.18-0.42-0.36-0.62-0.55c-0.96-1.22-2.38-2.11-4.2-2.85c-14.91-6.08-15.41-6.34-28.87-12.49
	L163,62.86c1.55,0.58,4.91,2.51,6.43,3.08c-3.02,0.06-9.07,0.3-9.07,0.3l-1.72,0.08c-0.01,0-0.02,0-0.02,0c0,0,0,0,0,0
	s-10.45,0.5-19.18,0.91c-10.03,0-20.07,0.09-30.1,0.3c-9.13,0.19-18.25,0.46-27.37,0.81c-3.32,0.13-6.64,0.28-9.96,0.43
	c-15.11,0.2-30.21,0.53-45.32,0.99c-0.6,0-1.2,0-1.81,0c-1.81,0-3.62-0.02-5.44-0.03c-1.79-0.11-6.64-0.23-7.58,0.07
	c-0.12,0.04-0.24,0.07-0.36,0.11c-0.02,0.01-0.05,0.02-0.07,0.03c-0.07,0.03-0.14,0.06-0.21,0.09c-0.41,0.18-0.83,0.34-1.23,0.56
	c-0.2,0.1-0.39,0.22-0.58,0.34c-0.06,0.04-0.11,0.07-0.17,0.11c0,0,0,0-0.01,0c-0.08,0.06-0.15,0.12-0.23,0.19
	c-0.09,0.07-0.17,0.15-0.25,0.24c-0.09,0.19-0.17,0.36-0.22,0.43C8.51,72,8.47,72.1,8.43,72.21c-0.12,0.33-0.23,0.66-0.33,0.99
	c-0.21,0.69-0.35,1.38-0.51,2.08c-0.01,0.05-0.02,0.07-0.03,0.11c0,0.03,0,0.03-0.01,0.07c-0.05,0.41-0.1,0.83-0.14,1.24
	c-0.12,1.4-0.14,2.81-0.05,4.21c0.01,0.18,0.01,0.29,0.01,0.37c0.04,0.18,0.09,0.36,0.11,0.47c0.16,0.88,0.43,1.72,0.67,2.58
	c0.02,0.07,0.03,0.11,0.04,0.15c0.02,0.04,0.04,0.07,0.07,0.13c0.17,0.33,0.32,0.66,0.5,0.99c0.08,0.14,0.17,0.27,0.26,0.41
	c-0.06-0.11,0.32,0.45,0.49,0.63c0.21,0.22,0.51,0.43,0.69,0.67c0.06,0.05,0.13,0.1,0.19,0.14c0.56,0.39,1.15,0.74,1.75,1.06
	c0.54,0.29,0.84,0.53,1.63,0.8c1.43,0.42,85.09-2.33,85.52-2.48c1.29-0.02,2.59-0.04,3.88-0.06c28.12,0.54,56.24-0.16,84.31-1.99
	c0.51-0.03,7.97-0.75,8.57-0.82c1.42-0.18,7.61-1.57,9.17-2.36c2.9-1.47,4.93-4.2,5.35-7.34c0.15-0.52,0.24-1.05,0.28-1.59
	c0.28-1.01,0.38-1.79,0.39-2.16c0.01-0.44-0.02-0.41-0.07-1.27c-0.04-0.56-0.02-0.86-0.09-1.29
	C210.96,67.1,210.63,66.28,210.25,65.51"/>
</svg>
