<svg xmlns="http://www.w3.org/2000/svg" viewBox="0 0 490.98 360.46"><defs><style>.a{fill:#fff;}</style></defs><title>top-left-white</title><path class="a" d="M41.11,344.66c5.75,13.37,24.46,20,37.28,12.95q35.72-19.61,72.19-37.79,53-26.38,107.43-49.59a1426.42,1426.42,0,0,0,152.22-13.77c12.56-1.83,21.31-13.28,22.78-25.27,1-8.28-3-17.36-9.43-23.19q22.32-7.2,44.79-13.89c6.46-1.92,11.31-4.14,15.74-9.19a26.62,26.62,0,0,0,6.3-12.59c2.17-10.34-2-23.18-11.54-28.85q-21-12.39-42.35-24C406.37,103.12,324.71,67,318,63.51a9.72,9.72,0,0,1-2.65-1.16,4.38,4.38,0,0,1-2.11-3.55,4.64,4.64,0,0,1,2-4.79,76.09,76.09,0,0,1,11.61-6.79c3.26-1.69,6.51-3.37,9.8-5C355.23,30.35,382.39,13.66,405.89,0H0V323.41A260.56,260.56,0,0,0,48.55,311.2C39,319.41,35.8,332.31,41.11,344.66Z"/></svg>