<svg xmlns="http://www.w3.org/2000/svg" viewBox="0 0 831.39 431.55"><defs><style>.a{fill:#fff;}</style></defs><title>white-splash</title><path class="a" d="M73.63,96.54c-36.9,6.38-37.75,51.39-.16,48.53l4.89-.34c-19,16.54-7.21,42.75,27.39,37.94l5.1-.71c-8.43,7.39-9.36,15.52-5.59,22.19-26.12,17.47-51.64,35.36-75.84,54a5.16,5.16,0,0,0-2.52,1.36c-10.47,9.75-21.71,22.67-18.31,39.39,2.19,10.79,9.82,16.69,18.44,20.17,4.3,2.85,10.11,4.73,17.55,5.07a553.93,553.93,0,0,1,56.23,5.49q-47.58,29.68-93.15,63.2c-5.19,3.81-1.13,12.76,4,10.87-4.7,15.22,8.67,31.83,35.62,26.95q76.74-13.9,153.58-26.83C329.24,386.31,458.22,377.3,586,350.17a40.69,40.69,0,0,0,16-7c8.16-1.09,16.32-2.2,24.48-3.28,41.58-5.5,130-6.06,136-49L802,283.08c11-2.18,24.11-3.78,31.26-14.68,8.26-12.59.34-27.78-10.58-34.14-12.67-7.38-27.63-4.85-41.3-3.85l-17.06,1.23a26.48,26.48,0,0,0,8.62-12.6,26.76,26.76,0,0,0-2-19.85c-3.3-6.33-8.66-10.22-14.64-12.72-4.5-1.87-9.66-2.45-14.4-2.73a58.79,58.79,0,0,0-15.29,1.41,62.12,62.12,0,0,0-11,3.64c8.05-5.81,13.72-13,15.18-22.12,2.2-13.83-6.16-22.17-18.86-27.2q50.89-14.81,102.6-27.19a41.13,41.13,0,0,0,7.49-10.55,13.61,13.61,0,0,0,1.22-3.58c.15-.59.27-1.19.36-1.79,0,.1.09-1.35.09-1.6A21.59,21.59,0,0,0,822,86.2c-2.53-6.59-6.45-12.1-11.76-15.25-4.51-2.68-9.92-3.54-15.31-3.61a76.19,76.19,0,0,0-9.06.5c-1.15.12-2.08.24-3,.36q-31.54,6.33-63,12.84c14.33-7.79,28.69-15.53,43-23.35C799,37.88,778.32.07,736.91,15.68L736,16a21.26,21.26,0,0,0-11.25-6.65A22.13,22.13,0,0,0,726.93,0H597.55q-62.13,12.81-124.4,24.77L510.89,0H413L325.94,52.2C241.89,67.41,157.75,82,73.63,96.54Z" transform="translate(-5.25 0)"/></svg>